<svg id="a7648ead-c4ef-4a83-9e53-d1186060c161" data-name="Calque 1" xmlns="http://www.w3.org/2000/svg" width="80" height="80" viewBox="0 0 80 80">
  <g>
    <path d="M12.4,40.2l.3-.2.3-.2c0-.1.1-.2.1-.3V34l1.7-.3,1.6-.6.5-.2.6-.2h.1v.2c0,.1.1.1.1.2a.3.3,0,0,0,.1.2v.2a3.5,3.5,0,0,0,.5.8l.5.7a3.5,3.5,0,0,1,.5.8,1.5,1.5,0,0,1,.2.9v1.4a.6.6,0,0,1-.1.4.8.8,0,0,1-.2.4l-.3.4-.2.3-.8.8-.7.6-.7.6-.6.8h-.3a4.6,4.6,0,0,0-.7-.7l-.8-.4-.9-.4-.9-.4h-.1C12.3,40.3,12.3,40.3,12.4,40.2Zm3.4-.1.9.5h.1c.2,0,.3-.1.5-.3l.3-.7a2.9,2.9,0,0,0,.2-.9,1.8,1.8,0,0,0,.1-.6,2.3,2.3,0,0,0-.4-1.4,5.7,5.7,0,0,0-.8-1.3c0-.1-.1-.2-.1-.3l-.3-.5-.3-.5-.2-.2h-.4l-.3.2v5.4A1.8,1.8,0,0,0,15.8,40.1Z"/>
    <path d="M20,40.9c0-.1.1-.1.1-.2s.2-.1.2-.2l.3-.2c0-.1.1-.2.1-.3h-.1v-.8c0-.8.1-1.7.1-2.6V32.8a5.3,5.3,0,0,0-.3-1.2c0-.1-.1-.2-.1-.3l-.3-.4a.5.5,0,0,0-.2-.4c0-.2-.1-.3-.1-.4a.2.2,0,0,1,.2-.2H20a5.9,5.9,0,0,1,.4.8l.3.7h.2a1.3,1.3,0,0,1,.5-.9,1.6,1.6,0,0,1,.8-.6l1.1-.4h1.1v.2h-.1l-.7.2-.5.3a.5.5,0,0,0-.3.5,1.4,1.4,0,0,0-.2.7v4.3a9.7,9.7,0,0,0-.1,1.8v2.1a1.9,1.9,0,0,0,.2.8.7.7,0,0,0,.6.3h.1l.4-.3H24l-1.7,2h-.2l-1-.9A4.1,4.1,0,0,0,20,41Z"/>
    <path d="M26.2,45.4h0l2.4-2.6a2.2,2.2,0,0,0,.7-.9,9.3,9.3,0,0,0,.5-1,4.3,4.3,0,0,0,.2-1.1,4.5,4.5,0,0,0,.1-1.1,5.9,5.9,0,0,0-.4-2.3,4.6,4.6,0,0,0-1.3-1.9H28c0,.1-.1.1-.2.1l-.2.2h-.1v4.4h-.1v1a.3.3,0,0,0,.3.3l.3.2h.2a.1.1,0,0,0,.1-.1c.1,0,.1,0,.1-.1h.3c0,.1-.1.2-.1.3l-.2.2-.2.2-.2.2-.3.3-.3.4-.3.3h-.2a3.9,3.9,0,0,1-1-.8l-1.1-.6v-.2a1.8,1.8,0,0,0,.5-.7,2.9,2.9,0,0,0,.3-1V35.3a1.1,1.1,0,0,0-.2-.8L25,34l-.3-.4a.7.7,0,0,1-.2-.6,1.6,1.6,0,0,1,.4-1.2,3.4,3.4,0,0,1,.9-.8l.2-.2h.4a.1.1,0,0,1-.1.1l-.3.2-.2.3a.4.4,0,0,0-.1.3.5.5,0,0,0,.3.5l.6.4.6.6a1.1,1.1,0,0,1,.3.8h.3l.3-.2.3-.2h.2c0-.1.1-.1.2-.2l.5-.3.4-.3.3-.2h.2v.5a16.4,16.4,0,0,1,1.2,2.2,6.1,6.1,0,0,1,.4,2.4,4.6,4.6,0,0,1-.5,2.3,7.4,7.4,0,0,1-1.3,2.1L28.3,44a11.9,11.9,0,0,1-1.8,1.5.1.1,0,0,1-.1.1h-.2v-.2Z"/>
    <path d="M41.1,39a14.8,14.8,0,0,1-.1-2.1V35.1c0-.1-.1-.2-.2-.3l-.3-.2h-.5l-.3.2-.3.2-.2.2v4.5c0,.2.1.3.1.4l.3.3h.2v.2c0,.1-.1.2-.1.3l-.3.2-.3.2c-.1.1-.2.1-.2.2s-.2.1-.2.2l-.2.3c-.1.1-.1.2-.2.2a.1.1,0,0,1-.1.1h-.1l-.7-.8-.8-.7h.1l.2-.2.2-.3a.7.7,0,0,0,.1-.5V35.3l-.2-.4-.3-.2h-.6l-.3.2-.3.3-.2.2v4.5c0,.2.1.3.1.4l.3.3c0,.1.1.1.2.2H36c0,.1-.1.1-.2.3l-.5.5-.5.5c-.2.2-.3.3-.3.4h-.3a.2.2,0,0,0-.2-.2c0-.1-.1-.2-.1-.3h-.1l-.3-.2-.3-.3-.3-.3-.2-.2a.3.3,0,0,1,.1-.2c.1-.1.2-.1.2-.2l.3-.3a.4.4,0,0,0,.1-.3V35.3l-.2-.3-.3-.2-.3.2h-.4a.9.9,0,0,1,.3-.5,2.5,2.5,0,0,1,.4-.7l.5-.7.3-.3h0l.7.4a1.8,1.8,0,0,1,.7.5c0,.1.1.2.1.3v.3c0,.1,0,.2.1.2h.1l2-1.7h.1l.8.2.5.7.3.6c0,.2.1.2.1.2h.1l.6-.5.6-.6.6-.5.3-.2h0l.2.2.4.3.3.3h.2l.3.2.3.2h.3c.1.1.2.1.2.2s-.1.1-.2.2l-.2.2-.3.3a3.5,3.5,0,0,0-.1.6v4.4a.5.5,0,0,0,.2.4H44a.4.4,0,0,1-.1.3l-.4.6-.4.6-.3.5h-.1l-.4-.2a1,1,0,0,1-.5-.4l-.5-.5c-.1-.2-.2-.3-.2-.5Z"/>
    <path d="M46.1,43.5a16.4,16.4,0,0,1-.2-2.2.5.5,0,0,0-.4-.3h-.8c0,.1-.1.1-.2.1h-.1c-.1-.1-.1-.1-.1-.2s.1-.2.1-.4.1-.3.2-.4l.3-.4.4-.3.4-.2.2-.3V37.3c0-.3-.1-.6-.1-.9V35.2a.8.8,0,0,0-.4-.4l-.3-.4a.8.8,0,0,1-.2-.4.7.7,0,0,1-.1-.5,2,2,0,0,1,.3-1.1,3.5,3.5,0,0,1,.7-.9h.1c.1,0,.2,0,.2.1s-.1.2-.2.3-.1.2-.1.3.1.3.1.4l.3.2.4.2.3.2h.3c0,.1.1.1.1.2l.2.2a.3.3,0,0,0,.1.2c0,.1,0,.2.1.2a.4.4,0,0,0,.1.3c0,.1.1.1.2.1l2.2-1.5h.2l.6,1.1.7.9a3,3,0,0,1,.4,1,3.4,3.4,0,0,1,.2,1.5v.6c0,.1-.1.2-.1.4a.1.1,0,0,1-.1.1h-.1l-.6,1-.6.7-.6.6-.7.7-.4.4-.3.3h-.5l-.3-.2h-.3l-.7,3.7h-.1c-.1,0-.1,0-.1-.1h-.1C46.4,45,46.3,44.3,46.1,43.5Zm2.2-8.6h-.5v4.8h.1l.6.4.6.3.5.3h.1c.1,0,.2-.2.3-.4a9.4,9.4,0,0,0,.3-.9c.1-.3.1-.6.2-.8a1.2,1.2,0,0,1,.1-.5,4.4,4.4,0,0,0-.2-1,6.1,6.1,0,0,0-.3-1.1,7,7,0,0,0-.6-.9,1,1,0,0,0-.8-.4Z"/>
    <path d="M52.7,40.9l.3-.2c.1-.1.2-.1.2-.2s.1-.2.2-.2v-.4a14.1,14.1,0,0,0,.1-2,11.5,11.5,0,0,0,.1-1.9v-.6c0-.1-.1-.2-.2-.4l-.3-.2h-.3c0,.1-.1.1-.2.1h-.1v-.5l.5-.6a4.3,4.3,0,0,1,.4-.7l.4-.5h0l.4.2.5.4.4.5c.2.2.2.3.2.4V38c0,.2-.1.5-.1.7v.7c0,.3.1.5.1.7s.1.2.1.3l.3.2c.1.1.2.2.2.3h.3l.4-.4c.2,0,.3-.1.5-.3V40a1.5,1.5,0,0,0,.1-.7v-.9a2.8,2.8,0,0,0,.1-.9V35.4l-.2-.5-.3-.2c-.1,0-.2-.1-.2-.3h.2l.2-.3c.1-.2.3-.3.4-.4s.3-.3.4-.4l.3-.3h.4l.2.2c0,.1.1.2.2.3s.1.1.2.2h0l.3.2c.1.1.1.2.2.2l.2.2c.1.1.1.1.1.2h0a1.8,1.8,0,0,0-.5.7,9.4,9.4,0,0,0-.3.9v4c.1.2.1.3.2.3h.5a.1.1,0,0,0,.1-.1h.4v.2L59,42.4a.1.1,0,0,1-.1.1h-.5l-.5-.4-.3-.4c-.2-.1-.2-.2-.3-.4V41a.4.4,0,0,0-.1-.3h-.3l-.3.2-.3.3h-.2l-.5.4-.4.4-.4.2h-.2l-.5-.4-.6-.4-.5-.4c-.2-.2-.3-.2-.3-.3Z"/>
    <path d="M60.7,40.6l1.2-1.4a.4.4,0,0,0,.1-.3h0a.7.7,0,0,0-.2-.6l-.4-.5-.4-.6a1.9,1.9,0,0,1-.2-.7,2,2,0,0,1,.2-.9l.6-.8.6-.6.7-.6c.3-.2.5-.3.6-.5l.4-.2h0l1,.7A1.5,1.5,0,0,0,66,34a1.3,1.3,0,0,0,.8-.3.7.7,0,0,0,.3-.6,1.1,1.1,0,0,0-.3-.8c-.1-.2-.4-.3-.6-.5l-.8-.2H63.9a.2.2,0,0,1-.2-.2h0l.4-.2h1.5a1.9,1.9,0,0,1,.9.5l.7.7a1.8,1.8,0,0,1,.2,1,1.9,1.9,0,0,1-.1.8,4.3,4.3,0,0,1-.4.7l-.6.6-.6.6v.3l.5.4.5.5.3.5a1.4,1.4,0,0,1,.2.7,3.2,3.2,0,0,1-1.3,2.2,5.2,5.2,0,0,1-1.1,1l-.9.8h0c-.1,0-.1,0-.1-.1a.1.1,0,0,1-.1-.1c0-.1-.1-.1-.1-.2h-.1l-.5-.3-.6-.3-.8-.3-.9-.4Zm1.5-4.7.5.6.6.6.5.2.6-.4c.1-.2.3-.3.5-.5l.6-.6-.2-.2h-.4l-.4-.2H64l-.3-.2-.4-.2-.2-.2h-.2a.1.1,0,0,1-.1-.1h-.3l-.2.3c-.1.1-.2.2-.2.3v.2A1.4,1.4,0,0,0,62.2,35.9Zm.5,3.7.9.4,1,.5.6.2h.3l.2-.3a.4.4,0,0,0,.1-.3.6.6,0,0,0,.1-.4c0-.1-.1-.2-.2-.4l-.6-.7-.6-.5c-.2-.2-.3-.2-.4-.2H64l-1.6,1.4h0Z"/>
  </g>
  <g>
    <path d="M54.4,65.6a14.1,14.1,0,0,0-4.7,2,6.7,6.7,0,0,0-1.9,3.5h0a5.4,5.4,0,0,0,3.7,1.4A13.9,13.9,0,0,0,56.4,71c-2.6,0-3.5-1-5-1.2C52.4,68.6,52.4,67.3,54.4,65.6Z" style="fill: #1d1d1b"/>
    <path d="M56.8,67.8c.8-1.3.6-2.7,2.3-4.7A13.9,13.9,0,0,0,54.8,66a6.2,6.2,0,0,0-1.3,3.7h0a6,6,0,0,0,3.8.8,14.6,14.6,0,0,0,4.6-2.4C59.4,68.6,58.4,67.7,56.8,67.8Z" style="fill: #1d1d1b"/>
    <path d="M61.8,64.8c.6-1.5.2-2.8,1.5-5a16.3,16.3,0,0,0-3.8,3.5,7,7,0,0,0-.6,3.9H59a5,5,0,0,0,3.8.1A14.9,14.9,0,0,0,67,64.2C64.5,65.1,63.4,64.4,61.8,64.8Z" style="fill: #1d1d1b"/>
    <path d="M66.8,55.7a13.5,13.5,0,0,0-3.1,4.2,5.9,5.9,0,0,0,.1,3.9h0a5.9,5.9,0,0,0,3.8-.6,13.7,13.7,0,0,0,3.6-3.8c-2.3,1.3-3.5.9-5,1.5C66.6,59.3,65.9,58.2,66.8,55.7Z" style="fill: #1d1d1b"/>
    <path d="M69.6,50.9a14.6,14.6,0,0,0-2.4,4.6,6.2,6.2,0,0,0,.8,3.9h0a5.8,5.8,0,0,0,3.7-1.2,16.3,16.3,0,0,0,2.8-4.4c-2,1.7-3.3,1.4-4.6,2.3C70,54.5,69.1,53.5,69.6,50.9Z" style="fill: #1d1d1b"/>
    <path d="M72.7,50.8c-.2-1.6-1.2-2.5-1.2-5.1a14.7,14.7,0,0,0-1.5,5,6.2,6.2,0,0,0,1.4,3.7h0a6.2,6.2,0,0,0,3.4-1.9,14.3,14.3,0,0,0,2-4.8C75.2,49.7,73.8,49.7,72.7,50.8Z" style="fill: #1d1d1b"/>
    <path d="M74.6,45.1c-.5-1.5-1.7-2.2-2.1-4.8a13.2,13.2,0,0,0-.6,5.2,5.7,5.7,0,0,0,2,3.3h0a6,6,0,0,0,3-2.5,15.1,15.1,0,0,0,1.2-5.1C76.8,43.6,75.5,43.8,74.6,45.1Z" style="fill: #1d1d1b"/>
    <path d="M72.5,34.6a14.3,14.3,0,0,0,.3,5.2,6.1,6.1,0,0,0,2.5,3h.1a6.1,6.1,0,0,0,2.5-3,14.3,14.3,0,0,0,.3-5.2c-.9,2.5-2.1,3-2.9,4.4C74.6,37.6,73.4,37.1,72.5,34.6Z" style="fill: #1d1d1b"/>
    <path d="M71.7,29.2a14.1,14.1,0,0,0,1.1,5.1,5.9,5.9,0,0,0,3,2.4h.1a5.7,5.7,0,0,0,2-3.3,15.6,15.6,0,0,0-.6-5.2c-.5,2.6-1.6,3.2-2.1,4.8C74.3,31.7,73,31.5,71.7,29.2Z" style="fill: #1d1d1b"/>
    <path d="M69.9,24a17,17,0,0,0,2,4.8,6.9,6.9,0,0,0,3.4,1.9h.1A7,7,0,0,0,76.8,27a13.9,13.9,0,0,0-1.5-5c0,2.6-1,3.5-1.2,5.1C72.9,26,71.6,26,69.9,24Z" style="fill: #1d1d1b"/>
    <path d="M67.3,19.4a14.9,14.9,0,0,0,2.8,4.3A6.2,6.2,0,0,0,73.8,25h0a6.2,6.2,0,0,0,.8-3.9,14.6,14.6,0,0,0-2.4-4.6c.5,2.6-.3,3.6-.3,5.2C70.6,20.8,69.3,21.1,67.3,19.4Z" style="fill: #1d1d1b"/>
    <path d="M68.8,16.6c-1.5-.6-2.7-.2-5-1.5a14.5,14.5,0,0,0,3.5,3.8,5.5,5.5,0,0,0,3.9.6h0a6.7,6.7,0,0,0,.1-3.9,13.5,13.5,0,0,0-3.1-4.2C69.1,13.9,68.4,15,68.8,16.6Z" style="fill: #1d1d1b"/>
    <path d="M58.2,9.5c1.4,2.8,3.9,4.9,9.5,5.7a7.7,7.7,0,0,0-4.1-6.6,12.2,12.2,0,0,0-8.1-1.4C55.8,7.1,57,7.1,58.2,9.5Z" style="fill: #1d1d1b"/>
    <path d="M55.4,7.2h0Z" style="fill: #1d1d1b"/>
    <path d="M31.9,71.1A5.4,5.4,0,0,0,30,67.6a13.3,13.3,0,0,0-4.7-2c2,1.7,2,3,3.1,4.2-1.6.2-2.4,1.2-5,1.2a13.9,13.9,0,0,0,4.9,1.5,5.3,5.3,0,0,0,3.6-1.4Z" style="fill: #1d1d1b"/>
    <path d="M26.3,69.7h0A6.2,6.2,0,0,0,25,66a13.9,13.9,0,0,0-4.3-2.9c1.7,2,1.4,3.4,2.3,4.7-1.6-.1-2.6.8-5.2.3a14.6,14.6,0,0,0,4.6,2.4,6,6,0,0,0,3.8-.8Z" style="fill: #1d1d1b"/>
    <path d="M20.8,67.2h0a6.2,6.2,0,0,0-.6-3.9,14.5,14.5,0,0,0-3.8-3.5c1.4,2.2.9,3.5,1.5,5-1.5-.4-2.7.3-5.1-.6a13.9,13.9,0,0,0,4.1,3.1A5.3,5.3,0,0,0,20.8,67.2Z" style="fill: #1d1d1b"/>
    <path d="M15.9,63.8H16a6.7,6.7,0,0,0,.1-3.9,14.9,14.9,0,0,0-3.2-4.2c1,2.5.3,3.6.7,5.2-1.5-.6-2.8-.2-5-1.5a14.5,14.5,0,0,0,3.5,3.8A6,6,0,0,0,15.9,63.8Z" style="fill: #1d1d1b"/>
    <path d="M11.7,59.5h.1a7.3,7.3,0,0,0,.7-3.9,15.2,15.2,0,0,0-2.3-4.6c.4,2.6-.4,3.6-.3,5.2-1.4-.9-2.7-.6-4.7-2.3A16.3,16.3,0,0,0,8,58.2a6,6,0,0,0,3.7,1.2Z" style="fill: #1d1d1b"/>
    <path d="M8.3,54.4h.1a7,7,0,0,0,1.4-3.7,14.7,14.7,0,0,0-1.5-5c0,2.6-1,3.5-1.2,5.1-1.2-1.1-2.5-1.1-4.2-3.1a17,17,0,0,0,2,4.8A6.9,6.9,0,0,0,8.3,54.4Z" style="fill: #1d1d1b"/>
    <path d="M5.8,48.9h.1a5.7,5.7,0,0,0,2-3.3,14.7,14.7,0,0,0-.7-5.2c-.4,2.6-1.5,3.3-2,4.8-1-1.3-2.3-1.5-3.5-3.8a14.1,14.1,0,0,0,1.1,5.1A7,7,0,0,0,5.8,48.9Z" style="fill: #1d1d1b"/>
    <path d="M4.4,42.8h0a6.1,6.1,0,0,0,2.6-3c.7-1.9.2-5.2.2-5.2-.8,2.5-2.1,3-2.8,4.4-.7-1.4-2-1.9-2.8-4.4a15.9,15.9,0,0,0,.2,5.2A6.1,6.1,0,0,0,4.4,42.8Z" style="fill: #1d1d1b"/>
    <path d="M3.9,36.7h0a5.5,5.5,0,0,0,3-2.4,15.1,15.1,0,0,0,1.2-5.1C6.8,31.5,5.5,31.7,4.5,33c-.4-1.6-1.6-2.2-2-4.8a13.2,13.2,0,0,0-.6,5.2A5.7,5.7,0,0,0,3.9,36.7Z" style="fill: #1d1d1b"/>
    <path d="M4.4,30.7h0a6.2,6.2,0,0,0,3.4-1.9,14.3,14.3,0,0,0,2-4.8c-1.6,2-3,2-4.1,3.1-.2-1.6-1.2-2.5-1.2-5.1A13.9,13.9,0,0,0,3,27a6.2,6.2,0,0,0,1.4,3.7Z" style="fill: #1d1d1b"/>
    <path d="M5.9,25H6a5.9,5.9,0,0,0,3.6-1.3,12.9,12.9,0,0,0,2.8-4.3c-1.9,1.7-3.3,1.4-4.6,2.3.1-1.6-.8-2.6-.3-5.2a13.1,13.1,0,0,0-2.3,4.6A5.7,5.7,0,0,0,5.9,25Z" style="fill: #1d1d1b"/>
    <path d="M8.5,19.5h.1a5.3,5.3,0,0,0,3.8-.6c1.8-1,3.5-3.8,3.5-3.8-2.2,1.3-3.5.9-4.9,1.5.3-1.6-.3-2.7.6-5.2a13.5,13.5,0,0,0-3.1,4.2,6.1,6.1,0,0,0,0,3.9Z" style="fill: #1d1d1b"/>
    <path d="M21.6,9.5c1.1-2.4,2.3-2.4,2.6-2.3a11.9,11.9,0,0,0-8,1.4,7.4,7.4,0,0,0-4.1,6.6C17.7,14.4,20.2,12.3,21.6,9.5Z" style="fill: #1d1d1b"/>
    <path d="M24.2,7.2h0Z" style="fill: #1d1d1b"/>
    <polygon points="41.1 69.6 39.8 65.5 38.4 69.6 34 69.6 37.6 72.2 36.2 76.4 39.8 73.8 43.3 76.4 42 72.2 45.5 69.6 41.1 69.6" style="fill: #1d1d1b"/>
  </g>
</svg>
