<svg id="a58818ac-234c-48b0-91e6-b9555d1c553f" data-name="Calque 1" xmlns="http://www.w3.org/2000/svg" width="235.3" height="79.6" viewBox="0 0 235.3 79.6">
  <g>
    <path d="M2.7,54.3l1.2-.8L5,52.7a1.3,1.3,0,0,0,.5-1.1l.6-23.3A33.5,33.5,0,0,0,13,27c2.2-.6,4.4-1.4,6.6-2.2a11.7,11.7,0,0,0,2.3-1.1,6.3,6.3,0,0,1,2.5-.7h.3a2.5,2.5,0,0,0,.2.7l.3,1a4.2,4.2,0,0,1,.4,1,3.9,3.9,0,0,1,.2.6,25.8,25.8,0,0,0,1.8,3.2L30,32.6a30.2,30.2,0,0,1,2.1,3.3,9.4,9.4,0,0,1,.8,3.6v6.2a3.4,3.4,0,0,1-.4,1.5,7.6,7.6,0,0,1-.9,1.8l-1.2,1.6-1,1.3c-1.1,1.2-2.1,2.2-3.1,3.1l-3.1,2.5-2.9,2.7a20.2,20.2,0,0,0-2.7,3.5.5.5,0,0,1-.5.3h-.7a15.3,15.3,0,0,0-2.9-2.8,22.3,22.3,0,0,0-3.3-2L6.5,57.6,2.8,56.1l-.4-.2c-.1,0-.1-.1-.1-.3v-.3A1.3,1.3,0,0,1,2.7,54.3ZM17,54.1a23,23,0,0,1,3.5,2H21a2.6,2.6,0,0,0,2-1.3,10.9,10.9,0,0,0,1.4-3.1,23.7,23.7,0,0,0,.9-3.6,17,17,0,0,0,.3-2.6,12.8,12.8,0,0,0-1.6-6c-1-1.9-2.1-3.6-3.2-5.3L20,32.9l-1.2-2.1-1.2-1.9c-.4-.6-.6-.8-.7-.8a4.7,4.7,0,0,0-1.6.2,1.9,1.9,0,0,0-1.2.9q-.2,5.4-.3,10.2c0,3.2-.1,6.5-.1,9.9v2.6A11.2,11.2,0,0,0,17,54.1Z" style="fill: #fff"/>
    <path d="M34.5,57.5a2.1,2.1,0,0,1,.4-1.1l1-.8.9-.8a2,2,0,0,0,.4-1.3V49.9c0-3.6,0-7.2.1-10.9s.2-7.2.2-10.8c0-1.6-.1-3.3-.2-4.9a27.3,27.3,0,0,0-1-4.8c-.2-.4-.4-1-.7-1.5l-1-1.7-.9-1.7a4.3,4.3,0,0,1-.4-1.4c0-.5.2-.8.6-.8h.3a14.1,14.1,0,0,1,1.9,3l1.3,2.9h.7a7.8,7.8,0,0,1,2.1-3.6,11.9,11.9,0,0,1,3.6-2.6,21.8,21.8,0,0,1,4.5-1.6A24.9,24.9,0,0,1,52.9,9v.3a1.3,1.3,0,0,1-.1.6c0,.2-.1.3-.3.4l-2.9.9a6.6,6.6,0,0,0-2.2,1.2A5.2,5.2,0,0,0,46,14.5a6.8,6.8,0,0,0-.6,3.1c0,2.2,0,4.3-.1,6.1s-.1,3.6-.1,5.5,0,3.9-.1,6.1v7.8c0,1.3,0,2.7-.1,4.3a30.8,30.8,0,0,0,0,4.3,8.5,8.5,0,0,0,.9,3.5,2.6,2.6,0,0,0,2.4,1.4h.3l1.9-1.5a.1.1,0,0,1,.1-.1l.3.2.5.5h0l-7.1,8.1a1.2,1.2,0,0,1-.9.3h-.3L39,60.5a16.3,16.3,0,0,0-4.5-2.7Z" style="fill: #fff"/>
    <path d="M60.3,76v-.2L70.6,64.9a20.7,20.7,0,0,0,2.7-3.7,21.9,21.9,0,0,0,2-4.4,23.7,23.7,0,0,0,1.1-4.6,25.6,25.6,0,0,0,.4-4.7,24.5,24.5,0,0,0-1.7-9.4,20,20,0,0,0-5.4-7.9H69l-.8.2-1.1.4-.8.5a.9.9,0,0,0-.4.7V50l-.3.5v4.4a1.5,1.5,0,0,0,.9,1.3,2.9,2.9,0,0,0,1.5.6l.7-.2.5-.4.6-.4.9-.2a1.8,1.8,0,0,1-.3,1.1,2.4,2.4,0,0,1-.6.9,3,3,0,0,1-.8.8,4.7,4.7,0,0,0-1,1l-1.2,1.2-1.4,1.6-1.2,1.3-.7.6h-.3L59,60.8a25.9,25.9,0,0,0-4.6-2.6v-.9a7,7,0,0,0,2.4-3,16.2,16.2,0,0,0,1-4.2,44.4,44.4,0,0,0,.2-5.3v-11a5.7,5.7,0,0,0-.8-3.1c-.5-.8-1.1-1.5-1.6-2.2l-1.7-1.9a4.2,4.2,0,0,1-.7-2.6,6.7,6.7,0,0,1,1.7-4.8,22.1,22.1,0,0,1,3.9-3.5c.6-.3.9-.6.9-.7s.3-.2.7-.2H61a.5.5,0,0,1,.2.4c0,.2-.1.4-.4.7l-1.1.8a5.2,5.2,0,0,0-1,1.1,2.1,2.1,0,0,0-.5,1.3,2.6,2.6,0,0,0,1.2,2.1l2.7,1.8a18.6,18.6,0,0,1,2.6,2.3A5.2,5.2,0,0,1,65.9,29h0a.3.3,0,0,0,.3.3h.1l1-.3,1.1-.6,1.1-.8.8-.7,1.2-.7,1.7-1.1L75,23.9l1.2-.8h.9l.5,2.1a62.6,62.6,0,0,1,4.9,9.1,25.5,25.5,0,0,1,2,10,23.1,23.1,0,0,1-2.2,9.8,40.3,40.3,0,0,1-5.6,8.7,73.4,73.4,0,0,1-7.3,7.5l-7.6,6.4c-.2.2-.3.3-.5.3h-.4c-.3,0-.5-.1-.5-.2s-.1-.3-.1-.6Z" style="fill: #fff"/>
    <path d="M122.6,49.4c-.1-3-.1-5.9-.1-8.9V37.3c0-1.1,0-2.2.1-3.3a4.5,4.5,0,0,0-.5-1L121,31.9l-1.2-.8-1.1-.3a2.2,2.2,0,0,0-1,.4l-1.4.9-1.2,1c-.4.4-.5.6-.5.7V52.9a2.3,2.3,0,0,0,.4,1.4,5.3,5.3,0,0,0,.9,1.1l1,.8.4.6a1.6,1.6,0,0,1-.5,1.1,5.2,5.2,0,0,1-1.1,1,5.5,5.5,0,0,1-1.4.9l-.9.8a8.6,8.6,0,0,0-.7,1,8.3,8.3,0,0,0-.8,1.2l-.8.9a.7.7,0,0,1-.6.4h-.3a21.4,21.4,0,0,0-2.8-3.5c-.9-.9-2.1-1.9-3.4-3a.4.4,0,0,1-.1-.3v-.2c0-.3.2-.5.5-.7a3.8,3.8,0,0,1,.9-.9,6,6,0,0,0,.9-1.3,3.4,3.4,0,0,0,.4-1.9V35.2a4.4,4.4,0,0,0-.2-1.5,6.1,6.1,0,0,0-.7-1.4,5.7,5.7,0,0,0-1.1-1.1,2.6,2.6,0,0,0-1.5-.4l-1.1.3-1.5.8L99.2,33c-.4.3-.6.6-.6.8V52.9a2.4,2.4,0,0,0,.5,1.4,5.4,5.4,0,0,0,.9,1.2,3.8,3.8,0,0,1,.9.9,1,1,0,0,1,.5.7l-.9,1-2,2a22,22,0,0,0-2,2.3,6.9,6.9,0,0,0-1.3,1.7h-.5a1.1,1.1,0,0,1-.7-.3,2.7,2.7,0,0,1-.7-.8l-.6-.9-.5-.7-1-.8-1.5-1.2-1.4-1.3c-.4-.4-.6-.7-.6-1a1.3,1.3,0,0,1,.4-.7l1-.8.9-1a2.3,2.3,0,0,0,.4-1.4V34a2.7,2.7,0,0,0-.5-1.4,2.1,2.1,0,0,0-1.4-.7,1.7,1.7,0,0,0-1.2.5c-.2.4-.5.5-1,.5s-.6-.1-.6-.5a6.5,6.5,0,0,1,.9-1.9,26.1,26.1,0,0,1,2-3l2-2.9q.9-1.2,1.2-1.2h.1a21,21,0,0,1,3,1.5,11.6,11.6,0,0,1,2.6,2.3,1.9,1.9,0,0,1,.5,1,5.6,5.6,0,0,1,.4,1.2,7.6,7.6,0,0,1,.4,1.1c.1.4.2.5.3.5h.2l8.3-7.4h.4a5.2,5.2,0,0,1,3.3,1.1,8.6,8.6,0,0,1,2.1,2.6,12.6,12.6,0,0,1,1.3,2.6c.3.7.5,1.1.6,1.1h.2l2.5-2.2,2.8-2.5,2.5-2.1,1.1-.8h.2l.9.7,1.3,1.2,1.3,1.1.9.8,1.2.7,1.4.7a4,4,0,0,1,1.3.7c.4.2.6.4.6.7a.8.8,0,0,1-.5.7l-1,.8a3.9,3.9,0,0,0-1,1.4,5.2,5.2,0,0,0-.5,2.5V54.1a1.8,1.8,0,0,0,.9,1.5,2.7,2.7,0,0,0,1.6.6l.8-.2h.7c.3,0,.4.1.4.2s.1.3.1.5a5.7,5.7,0,0,1-.6,1.2L133,60l-1.7,2.6c-.6.8-1,1.5-1.4,2.1h-.3a3.7,3.7,0,0,1-2-.7,15.7,15.7,0,0,1-2.1-1.7l-1.7-2.1a3.5,3.5,0,0,1-.9-2Z" style="fill: #fff"/>
    <path d="M143.9,68.2a59,59,0,0,1-1.1-9.3,3.4,3.4,0,0,0-1.7-1.3l-2.2-.2a1.1,1.1,0,0,0-1,.5,1,1,0,0,1-.9.4c-.4,0-.5-.1-.6-.2s-.1-.4-.1-.7a4.2,4.2,0,0,1,.4-1.8,7.1,7.1,0,0,1,.8-1.8,4.4,4.4,0,0,1,1.2-1.5,4.8,4.8,0,0,1,1.5-1.1,5,5,0,0,0,1.8-1.1,3.4,3.4,0,0,0,.7-1.1,2.5,2.5,0,0,0,.2-1.2,4.9,4.9,0,0,1-.1-1.2v-1c0-.8,0-1.9-.1-3.2s0-2.6-.1-3.8,0-2.7-.1-4.5l-.2-.8-1.7-1.6a11,11,0,0,1-1.5-1.6,5.6,5.6,0,0,1-.9-1.7,4.8,4.8,0,0,1-.4-2.2,8.4,8.4,0,0,1,1.3-4.6,16.1,16.1,0,0,1,3.2-3.7h.2c.4,0,.7.2.7.6a1.7,1.7,0,0,1-.5,1.2,1.7,1.7,0,0,0-.5,1.3,2,2,0,0,0,.5,1.5,4,4,0,0,0,1.2,1l1.4.7a7.4,7.4,0,0,1,1.3.8l.4.3a4.6,4.6,0,0,1,.7.7l.7.8a1.7,1.7,0,0,1,.6.6,3.6,3.6,0,0,1,.5.9c.1.4.3.8.4,1.1a3.7,3.7,0,0,0,.5,1.1.8.8,0,0,0,.7.4l9.4-6.5h.9a26.5,26.5,0,0,0,2.6,4.8c.9,1.3,1.8,2.6,2.6,3.9a16.3,16.3,0,0,1,2,4.2,19.3,19.3,0,0,1,.8,6v.8c0,.7-.1,1.2-.1,1.7s-.3,1.1-.5,1.9l-.3.5c-.2.2-.3.3-.3.4a29.4,29.4,0,0,1-2.5,4.1,25.5,25.5,0,0,1-2.6,3l-2.7,2.5a35,35,0,0,0-2.8,2.7,17.7,17.7,0,0,0-1.7,2c-.5.7-.9,1-1.3,1l-.9-.2-1.1-.7-1.2-.7-.9-.4h-.3c-.2,0-.3,0-.3.2l-2.6,15.7-.3.2h-.9l-.3-.5C145.2,74.4,144.5,71.3,143.9,68.2ZM153,32.1l-1.1.3-1,.6a.9.9,0,0,0-.4.8V53q.1.3.3.3l2.8,1.5,2.3,1.2,1.9,1.1h.4c.5,0,1-.5,1.4-1.5a30.1,30.1,0,0,0,1.3-3.6c.3-1.3.6-2.5.8-3.7a18.8,18.8,0,0,0,.3-2,23,23,0,0,0-.5-3.9,42.6,42.6,0,0,0-1.5-4.7,18.4,18.4,0,0,0-2.6-4A4.4,4.4,0,0,0,154,32Z" style="fill: #fff"/>
    <path d="M171.5,57.5l1.1-1.1a2.4,2.4,0,0,0,.9-.8,2.7,2.7,0,0,0,.6-1c.1-.4.3-.8.4-1.3.1-3.1.3-5.9.4-8.5s.2-5.2.2-8V34.5a8.5,8.5,0,0,0-.8-1.7c-.4-.7-.8-1-1.4-1a1.4,1.4,0,0,0-1,.5,1.1,1.1,0,0,1-.9.4c-.3,0-.5-.1-.5-.2s-.1-.3-.1-.6a3.5,3.5,0,0,1,.7-1.5l1.8-2.6c.7-.9,1.3-1.9,2-2.7l1.4-2.1h.1a3.2,3.2,0,0,1,1.7.7,18,18,0,0,1,3.9,3.9,3.8,3.8,0,0,1,.7,1.8V45.1a16.9,16.9,0,0,0-.3,3v3a16.5,16.5,0,0,0,.2,2.7,3.7,3.7,0,0,0,.7,1.4,2.8,2.8,0,0,0,1,.9l1.1,1.1h.9l1.9-1.4,1.9-1.3c.1,0,.2-.4.3-1.1a18.7,18.7,0,0,0,.2-2.7c.1-1.2.2-2.4.2-3.7s.1-2.6.1-3.9,0-2.3.1-3.3V36.3a14.8,14.8,0,0,0-.1-2.1,3.7,3.7,0,0,0-.8-1.8,3.6,3.6,0,0,0-1.1-1,1.1,1.1,0,0,1-.7-1.1c0-.1.1-.3.4-.7l1.2-1.4,1.5-1.6c.6-.6,1.1-1.2,1.6-1.6l1.4-1.3.8-.4h.3l.5.3.7.9a8.3,8.3,0,0,1,.8,1.2l.9,1.1.3.3,1,1,1,.9.9.8a.9.9,0,0,1,.3.5v.3a5.6,5.6,0,0,0-2.2,2.6,13,13,0,0,0-.9,4.1,26.1,26.1,0,0,0-.2,4.9c0,1.7.1,3.3.1,4.9v6.8a3,3,0,0,0,.8,1.4,2.1,2.1,0,0,0,1.5.4h.6l.5-.4.5-.4.8-.2v1.1l-5.6,8-.5.2h-.2a3.3,3.3,0,0,1-1.8-.5,11.3,11.3,0,0,1-2-1.3,12.9,12.9,0,0,1-1.6-1.7,4.4,4.4,0,0,1-1-1.7,2.8,2.8,0,0,1-.1-1.1c0-.5-.1-.8-.5-1H190a1.6,1.6,0,0,0-.9.4l-1.3.8-1.2,1-1,.7-2,1.7-1.9,1.4-1.4,1-.8.3h-.3l-1.9-1.6-2.5-1.9-2.3-1.6a4.1,4.1,0,0,1-1-1Z" style="fill: #fff"/>
    <path d="M204.8,55.9l5.3-5.8a1.5,1.5,0,0,0,.3-1v-.4a4,4,0,0,0-.8-2.3l-1.7-2.2a21.5,21.5,0,0,1-1.8-2.4,6.2,6.2,0,0,1-.8-3.1,6.6,6.6,0,0,1,1-3.7,21.3,21.3,0,0,1,2.3-3.2l2.7-2.4,2.9-2.6,2.5-2.1a5.4,5.4,0,0,1,1.5-.8h.1c1.3,1,2.7,2.1,4.1,3a8,8,0,0,0,4.8,1.4,4.7,4.7,0,0,0,3-1,3.3,3.3,0,0,0,1.4-2.9,4.4,4.4,0,0,0-1.1-3,6.8,6.8,0,0,0-2.7-2,11.7,11.7,0,0,0-3.3-1.1l-3.1-.3h-1.7a4.1,4.1,0,0,1-1.6.2.6.6,0,0,1-.7-.7v-.2a3.7,3.7,0,0,1,1.6-.6l2-.6h.1a16.1,16.1,0,0,1,4.4.6,15,15,0,0,1,3.8,1.9,11.4,11.4,0,0,1,2.7,3.1,8.8,8.8,0,0,1,1.1,4.2,7.7,7.7,0,0,1-.7,3.4,16.4,16.4,0,0,1-1.6,2.9,27.3,27.3,0,0,1-2.3,2.5L226,37.1v1.2l1.9,1.9a18,18,0,0,1,1.9,2,11.4,11.4,0,0,1,1.5,2.3,5.8,5.8,0,0,1,.6,2.6,9.5,9.5,0,0,1-1.5,5.1,30.8,30.8,0,0,1-3.7,4.4l-4.5,4a50.8,50.8,0,0,0-3.9,3.3h-.1a.6.6,0,0,1-.5-.2l-.4-.6a2.5,2.5,0,0,0-.4-.7,1,1,0,0,0-.4-.5,7,7,0,0,0-1.8-1.2l-2.9-1.3-3.3-1.5-3.4-1.3C204.9,56.5,204.8,56.3,204.8,55.9Zm6.4-19.6a26.1,26.1,0,0,0,2.2,2.7,16.4,16.4,0,0,0,2.5,2.2,4,4,0,0,0,2,1,15.4,15.4,0,0,0,2.3-1.8c.7-.5,1.4-1.2,2.2-1.9l2.4-2.6a3,3,0,0,0-.8-.7l-1.6-.7-1.6-.6-1.3-.6-.8-.5-1.4-.8-1.4-.9-.8-.5-.6-.3h-1a1.5,1.5,0,0,0-1.1.4,3.1,3.1,0,0,0-1.1.9,7.5,7.5,0,0,0-.7,1.2,3.5,3.5,0,0,0-.3,1.2A4.8,4.8,0,0,0,211.2,36.3Zm2.2,15.4,3.7,1.9,3.9,1.9a9.3,9.3,0,0,0,2.5.8,2,2,0,0,0,1.3-.4,3.5,3.5,0,0,0,1-1.1,3.5,3.5,0,0,0,.6-1.4,6.8,6.8,0,0,0,.2-1.4,4,4,0,0,0-1-2,23.9,23.9,0,0,0-4.8-4.9,3.3,3.3,0,0,0-1.8-1h-.4l-6.7,6.2a.4.4,0,0,0-.1.3Z" style="fill: #fff"/>
  </g>
</svg>
