<svg x="0px" y="0px"
	 viewBox="0 0 40 40">
<path d="M35.3,27.8c0,4.2-3.4,7.6-7.6,7.6H12.2c-4.2,0-7.6-3.4-7.6-7.6V12.2c0-4.2,3.4-7.6,7.6-7.6h15.5 c4.2,0,7.6,3.4,7.6,7.6V27.8z M27.8,0.8H12.2C5.9,0.8,0.8,5.9,0.8,12.2v15.5c0,6.3,5.1,11.4,11.4,11.4h15.5 c6.3,0,11.4-5.1,11.4-11.4V12.2C39.2,5.9,34.1,0.8,27.8,0.8"></path>
<path d="M20,26.1c-3.4,0-6.1-2.7-6.1-6.1s2.7-6.1,6.1-6.1s6.1,2.7,6.1,6.1S23.4,26.1,20,26.1 M20,10.1 c-5.5,0-9.9,4.5-9.9,9.9c0,5.5,4.5,9.9,9.9,9.9s9.9-4.5,9.9-9.9S25.5,10.1,20,10.1"></path>
<path d="M32.3,10.1c0,1.3-1.1,2.4-2.4,2.4c-1.3,0-2.4-1.1-2.4-2.4s1.1-2.4,2.4-2.4C31.3,7.8,32.3,8.8,32.3,10.1"></path>
</svg>
