<?xml version="1.0" encoding="utf-8"?>
<!-- Generator: Adobe Illustrator 25.4.6, SVG Export Plug-In . SVG Version: 6.00 Build 0)  -->
<svg version="1.1" id="Calque_1" xmlns="http://www.w3.org/2000/svg" xmlns:xlink="http://www.w3.org/1999/xlink" x="0px" y="0px"
	 viewBox="0 0 130.1 19.8" style="enable-background:new 0 0 130.1 19.8;" xml:space="preserve">
<style type="text/css">
	.st0{fill:#FFFFFF;}
</style>
<path id="Icon_awesome-dhl" class="st0" d="M48.4,19.1h11.9l4.5-6.1H52.9L48.4,19.1z M0,15.4v1.3h16.6l1-1.3
	C17.6,15.4,0,15.4,0,15.4z M35.1,13c-1.8,0-1.2-0.7-0.9-1.1c0.6-0.8,1.5-2.1,2.1-2.9c0.6-0.8,0.6-1.2-0.6-1.2H25.4L17,19.1h20.3
	c4.6-0.1,9-2.4,11.6-6.2L35.1,13z M99.7,11.6l8-10.9H95l-8,10.9H99.7z M19.4,12.9H0v1.3h18.4L19.4,12.9z M41.9,7.5
	c-0.6,0.8-1.5,2.1-2.1,2.9c-0.3,0.4-0.8,1.1,0.9,1.1H50c0,0,1.5-2,2.7-3.7c1.7-2.3,0.1-7.1-5.9-7.1h-24l-4.1,5.7h22.6
	C42.5,6.3,42.5,6.8,41.9,7.5L41.9,7.5z M0,19.1h14.9l1-1.3H0V19.1z M65.7,19.1h11.9l4.5-6.1H70.2C70.2,12.9,65.7,19.1,65.7,19.1z
	 M110.8,19.1h19.3v-1.3h-18.4L110.8,19.1z M115.3,12.9l-1,1.3h15.8v-1.3H115.3z M112.6,16.7h17.5v-1.3h-16.6L112.6,16.7z M79.2,0.7
	l-4.6,6.2h-5.3l4.6-6.2h-12l-8,10.9h29.2l8-10.9L79.2,0.7L79.2,0.7z M86,12.9c0,0-0.9,1.2-1.3,1.8c-1.5,2-0.2,4.4,4.7,4.4h19.2
	l4.5-6.2L86,12.9L86,12.9z"/>
</svg>
