<?xml version="1.0" encoding="utf-8"?>
<!-- Generator: Adobe Illustrator 25.4.6, SVG Export Plug-In . SVG Version: 6.00 Build 0)  -->
<svg version="1.1" id="Calque_1" xmlns="http://www.w3.org/2000/svg" xmlns:xlink="http://www.w3.org/1999/xlink" x="0px" y="0px"
	 viewBox="0 0 67 40.2" style="enable-background:new 0 0 67 40.2;" xml:space="preserve">
<style type="text/css">
	.st0{fill:#FFFFFF;}
</style>
<path id="Icon_payment-maestro" class="st0" d="M46.4,0.7c-4.8,0-9.4,1.8-12.9,4.9c-8-7.1-20.2-6.5-27.4,1.5s-6.5,20.2,1.5,27.4
	c7.4,6.6,18.5,6.6,25.9,0c8,7.1,20.2,6.5,27.4-1.5c7.1-8,6.5-20.2-1.5-27.4C55.8,2.5,51.2,0.7,46.4,0.7z M15,25l1.5-7.7L13,25h-2.2
	l-0.4-7.7L8.9,25H6.7l1.8-10.1h3.9l0.2,6.3l2.8-6.3h4.1l-2,10.1H15z M26.2,20.6l-0.6,2.9V24l-0.2,0.4V25h-2v-0.9
	c-0.6,0.8-1.6,1.2-2.6,1.1c-1.5,0-2.2-0.8-2.2-2.4c0-2.1,1.4-3.1,4.2-3.1c0.4,0,0.8,0,1.1,0.2v-0.6c0-0.5-0.5-0.7-1.5-0.7
	c-0.7,0-1.4,0-2,0.2h-0.4L20,18.9l0.2-1.8c1-0.3,1.9-0.5,2.9-0.6c2.2,0,3.3,0.8,3.3,2.4C26.4,19.5,26.3,20,26.2,20.6L26.2,20.6z
	 M33.6,24.8c-0.8,0.2-1.6,0.3-2.4,0.4c-2.8,0-4.2-1.2-4.2-3.7c0-3.3,1.4-5,4.2-5c2.2,0,3.3,1,3.3,2.9c0,0.7,0,1.4-0.2,2h-5v0.4
	c0,1,0.7,1.5,2,1.5c0.9,0,1.8-0.2,2.6-0.6L33.6,24.8L33.6,24.8z M40.9,18.5h-1.8c-0.7,0-1.1,0.2-1.1,0.6c0,0.4,0.4,0.7,1.1,0.9
	c1,0.4,1.7,1.3,1.7,2.4c0,1.8-1.3,2.8-3.9,2.8h-0.6C36.1,25,35.9,25,35.6,25h-0.7l-0.4-0.2h-0.2l0.4-1.8c0.7,0.2,1.5,0.3,2.2,0.4
	c1,0,1.5-0.2,1.5-0.7c0-0.4-0.4-0.7-1.1-0.9c-1.4-0.6-2-1.4-2-2.4c0-1.8,1.3-2.8,3.9-2.8c0.1,0,0.5,0,1,0.1c0.4,0.1,0.8,0.1,1.2,0.1
	L40.9,18.5L40.9,18.5z M45.2,24.8c-0.6,0.2-1.2,0.3-1.8,0.4c-0.9,0.1-1.7-0.5-1.8-1.4c0-0.2,0-0.3,0-0.5v-0.7l0.2-0.7v-0.7l1.3-6.3
	h2.4L45,16.7h1.3l-0.4,2h-1.3l-0.6,3.5c-0.1,0.1-0.2,0.2-0.2,0.4c0,0.4,0.3,0.6,0.9,0.6c0.3,0,0.5,0,0.7-0.2L45.2,24.8L45.2,24.8z
	 M48.5,25h-2.6l1.5-8.3h2.4L49.4,18c0.5-0.7,1.3-1.2,2.2-1.3h0.6l0.2,0.2l-0.9,2.2h-0.6C50,19.1,49.2,21,48.5,25z M60.1,21.3
	c-0.4,2.6-2,3.9-4.8,3.9c-2.7,0-4.1-1.3-4.1-3.9c0-1.3,0.5-2.5,1.4-3.4c1-0.9,2.3-1.4,3.6-1.4c2.6,0,3.9,1.2,3.9,3.7L60.1,21.3
	L60.1,21.3z M21.1,22.6c0,0.5,0.3,0.7,0.9,0.7c1.1,0,1.7-0.7,1.7-2h-0.6C21.7,21.3,21.1,21.7,21.1,22.6L21.1,22.6z M32.3,19.4
	c0.1-0.5-0.3-1-0.8-1.1c-0.1,0-0.2,0-0.3,0c-0.9,0-1.6,0.6-1.7,1.5h2.8L32.3,19.4L32.3,19.4z M56.2,18.5c-1.4,0-2,0.9-2,2.8
	c0,1.2,0.4,1.8,1.3,1.8c1,0,1.7-0.7,2-2v-0.9C57.5,19.1,57.1,18.5,56.2,18.5L56.2,18.5z"/>
</svg>
