<?xml version="1.0" encoding="utf-8"?>
<!-- Generator: Adobe Illustrator 25.4.6, SVG Export Plug-In . SVG Version: 6.00 Build 0)  -->
<svg version="1.1" id="Calque_1" xmlns="http://www.w3.org/2000/svg" xmlns:xlink="http://www.w3.org/1999/xlink" x="0px" y="0px"
	 viewBox="0 0 67.2 40.2" style="enable-background:new 0 0 67.2 40.2;" xml:space="preserve">
<style type="text/css">
	.st0{fill:#FFFFFF;}
</style>
<path id="Icon_payment-mastercard-alt" class="st0" d="M66.5,20.1c0-3.5-0.9-6.9-2.6-9.9C62,7.3,59.6,4.8,56.7,3
	c-3-1.7-6.5-2.6-9.9-2.6c-4.3,0-8.5,1.4-11.9,4.1c3.1,2.7,5.2,6.3,6.2,10.3h-1.8c-0.9-3.6-2.9-6.8-5.7-9.3c-2.8,2.5-4.8,5.7-5.7,9.3
	h-1.8c1-4,3.1-7.6,6.2-10.3c-3.4-2.7-7.6-4.1-11.9-4.1c-3.5,0-6.9,0.9-9.9,2.6c-2.9,1.8-5.4,4.3-7.2,7.2c-3.5,6.2-3.5,13.7,0,19.9
	c1.8,2.9,4.3,5.3,7.2,7.2c3,1.7,6.5,2.6,9.9,2.6c4.3,0,8.5-1.4,11.9-4.1c-2.8-2.5-4.9-5.8-6-9.4h1.8c1.1,3.3,3,6.2,5.5,8.5
	c2.5-2.3,4.5-5.2,5.5-8.5h1.8c-1.1,3.6-3.2,6.9-6,9.4c3.4,2.7,7.6,4.1,11.9,4.1c3.5,0,6.9-0.9,9.9-2.6c2.9-1.8,5.3-4.3,7.2-7.2
	C65.6,27,66.5,23.6,66.5,20.1L66.5,20.1z M9.3,15.4h3.1l-1.6,9.4h-2l1.1-7.2l-2.6,7.2H5.9v-7.2l-1.3,7.2h-2l1.6-9.4h2.9v5.9
	L9.3,15.4z M18.4,19.3c0,0.5-0.1,1-0.2,1.5c-0.1,0.8-0.2,1.5-0.3,2.1c-0.1,0.5-0.2,1-0.3,1.5v0.5H16V24c-0.5,0.7-1.3,1-2.1,1
	c-0.5,0-1-0.2-1.3-0.5c-0.3-0.5-0.5-1-0.5-1.6c-0.1-0.8,0.2-1.6,0.8-2.1c0.8-0.6,1.8-0.8,2.8-0.8h0.8v-0.5c0-0.4-0.4-0.7-1.3-0.7
	c-0.7,0-1.4,0.1-2.1,0.3c0.1-0.4,0.2-1,0.3-1.6c0.7-0.3,1.5-0.5,2.3-0.5C17.5,17,18.4,17.8,18.4,19.3L18.4,19.3z M16.2,21.4h-0.5
	c-1.1,0-1.6,0.4-1.6,1.1c0,0.5,0.2,0.8,0.7,0.8c0.4,0,0.8-0.2,1-0.5C16,22.5,16.2,22,16.2,21.4z M24.1,17.2L23.8,19
	c-0.5-0.1-1-0.2-1.5-0.2c-0.7,0-1,0.2-1,0.7c0,0.2,0,0.4,0.2,0.5l0.7,0.3c0.9,0.4,1.4,1.2,1.5,2.1c0,1.7-1,2.6-3.1,2.6
	c-0.7,0-1.4,0-2.1-0.2c0.1-0.4,0.2-1,0.3-1.8c0.6,0.2,1.2,0.3,1.8,0.3c0.8,0,1.1-0.2,1.1-0.7c0-0.2,0-0.4-0.2-0.5
	c-0.2-0.2-0.5-0.4-0.8-0.5c-0.9-0.3-1.5-1.2-1.5-2.1c0-1.7,1-2.6,2.9-2.6C22.8,17,23.5,17,24.1,17.2L24.1,17.2z M27.2,17.2h1l-0.2,2
	h-1.1c0,0.5-0.1,1-0.2,1.5c0,0.2,0,0.4-0.1,0.7c0,0.2-0.1,0.5-0.2,0.7v0.7c0,0.3,0.2,0.6,0.5,0.7c0.1,0,0.1,0,0.2,0
	c0.2,0,0.4-0.1,0.7-0.2l-0.3,1.8c-0.5,0.1-1,0.2-1.5,0.2c-0.8,0.1-1.5-0.4-1.6-1.2c0-0.1,0-0.3,0-0.4c0-0.7,0.1-1.4,0.3-2.1l0.8-5.2
	h2L27.2,17.2L27.2,17.2z M34.6,19.8c0,0.7,0,1.3-0.2,2h-4.1c0,0.4,0.1,0.8,0.3,1.1c0.4,0.4,0.9,0.5,1.5,0.5c0.7,0,1.5-0.3,2.1-0.7
	l-0.3,2c-0.7,0.2-1.4,0.4-2.1,0.3c-2.3,0-3.4-1.1-3.4-3.4c-0.1-1.2,0.3-2.3,1-3.3c0.5-0.8,1.5-1.3,2.4-1.3c0.8,0,1.6,0.3,2.1,0.8
	C34.4,18.4,34.6,19.1,34.6,19.8L34.6,19.8z M30.5,20.1h2.3v-0.5l-0.2-0.3c0-0.1-0.1-0.2-0.2-0.3c-0.1,0-0.2-0.1-0.3-0.2h-0.3
	C31.1,18.8,30.7,19.2,30.5,20.1L30.5,20.1z M39.6,17.2c-0.3,0.7-0.6,1.5-0.8,2.3c-0.4-0.1-0.8,0.2-1.1,0.8c-0.4,1.5-0.7,3-0.8,4.6
	h-2.1l0.2-0.5c0.4-3,0.8-5.4,1-7.2h2l-0.2,1.1c0.2-0.4,0.6-0.8,1-1C38.9,17,39.3,17,39.6,17.2L39.6,17.2z M46.4,15.7l-0.3,2
	c-0.6-0.3-1.2-0.5-1.8-0.5c-0.8,0-1.5,0.3-2,1c-0.5,0.8-0.7,1.7-0.7,2.6c-0.1,0.6,0.1,1.2,0.5,1.6c0.3,0.4,0.8,0.7,1.3,0.7
	c0.6,0,1.2-0.2,1.8-0.5L45,24.7c-0.6,0.2-1.2,0.4-1.8,0.3c-1,0-2-0.4-2.6-1.1c-0.7-0.8-1.1-1.9-1-2.9c-0.1-1.5,0.4-2.9,1.3-4.1
	c0.7-1.1,2-1.7,3.3-1.6C44.9,15.3,45.7,15.4,46.4,15.7L46.4,15.7z M52.3,19.3c0,0.2,0,0.4-0.1,0.7c0,0.3-0.1,0.5-0.1,0.8
	C52,21.3,51.9,22,51.8,23c-0.1,0.6-0.2,1.3-0.3,1.9h-1.6V24c-0.5,0.7-1.3,1-2.1,1c-0.5,0-1-0.2-1.3-0.5c-0.3-0.5-0.5-1-0.5-1.6
	c-0.1-0.8,0.2-1.6,0.8-2.1c0.8-0.5,1.7-0.8,2.6-0.8h0.8c0.1-0.1,0.2-0.3,0.2-0.5c0-0.4-0.4-0.7-1.3-0.7c-0.7,0-1.4,0.1-2.1,0.3
	c0-0.6,0.1-1.1,0.3-1.6c0.7-0.3,1.5-0.5,2.3-0.5C51.4,17,52.3,17.8,52.3,19.3z M50,21.4h-0.5c-1.1,0-1.6,0.4-1.6,1.1
	c0,0.5,0.2,0.8,0.7,0.8c0.4,0,0.8-0.2,1-0.5C49.9,22.5,50.1,22,50,21.4z M57.4,17.2c-0.5,0.7-0.8,1.5-0.8,2.3
	c-0.4-0.1-0.8,0.2-1.1,0.8c-0.4,1.5-0.7,3-0.8,4.6h-2.1l0.2-0.5c0.4-2.4,0.8-4.8,1-7.2h2c0,0.4,0,0.8-0.2,1.1c0.2-0.4,0.6-0.8,1-1
	C56.7,17.2,57,17.1,57.4,17.2L57.4,17.2z M62.4,15.4h2.1l-1.6,9.4h-2l0.2-0.7C60.7,24.7,60,25,59.3,25c-0.7,0.1-1.4-0.2-1.8-0.8
	c-0.5-0.7-0.8-1.5-0.8-2.3c-0.1-1.2,0.3-2.5,1.1-3.4c0.5-0.8,1.3-1.3,2.3-1.3c0.8,0,1.5,0.4,2,1L62.4,15.4L62.4,15.4z M61.6,20.4
	c0-1-0.4-1.5-1.1-1.5c-0.5,0-0.9,0.4-1.1,0.8C59,20.3,58.9,21,59,21.6c0,1,0.3,1.5,1,1.5c0.5,0,0.9-0.3,1.1-0.7
	C61.5,21.8,61.6,21.1,61.6,20.4L61.6,20.4z"/>
</svg>
