<?xml version="1.0" encoding="utf-8"?>
<!-- Generator: Adobe Illustrator 25.4.6, SVG Export Plug-In . SVG Version: 6.00 Build 0)  -->
<svg version="1.1" id="Groupe_305" xmlns="http://www.w3.org/2000/svg" xmlns:xlink="http://www.w3.org/1999/xlink" x="0px" y="0px"
	 viewBox="0 0 119.1 28.4" style="enable-background:new 0 0 119.1 28.4;" xml:space="preserve">
<style type="text/css">
	.st0{fill:#FFFFFF;}
</style>
<path id="Tracé_825" class="st0" d="M55.1,2.1l-5.3,14.3L44.9,2.1h-3.4L48,20.6l-2.5,6.7h3.2l9.7-25.2L55.1,2.1z"/>
<path id="Tracé_826" class="st0" d="M9.9,1.5c-2.3,0-4.6,1-6.2,2.7v-2h-3v25.1h3v-8.2c1.6,1.7,3.9,2.6,6.2,2.6
	c5.2,0,9.2-4.5,9.2-10C19.1,6.1,15.1,1.5,9.9,1.5z M9.9,18.8c-3.4,0-6.2-3.2-6.2-7.1c0-4,2.8-7.2,6.2-7.2s6.2,3.2,6.2,7.2
	C16.1,15.6,13.3,18.8,9.9,18.8z"/>
<path id="Tracé_827" class="st0" d="M36.6,4c-1.7-1.6-3.9-2.5-6.2-2.5c-5.3,0.2-9.4,4.7-9.2,10c0.2,5,4.2,8.9,9.2,9.2
	c2.3,0,4.5-0.9,6.2-2.4v2h3V2.1h-3V4z M30.4,17.9c-3.4,0-6.2-3-6.2-6.7c0-3.8,2.8-6.9,6.2-6.9s6.2,3.1,6.2,6.9
	C36.6,14.9,33.8,17.9,30.4,17.9L30.4,17.9z"/>
<path id="Tracé_828" class="st0" d="M113.9,2h-3.7l-3.7,5.3l1.8,2.7L113.9,2z"/>
<path id="Tracé_829" class="st0" d="M105.7,8.4L101.3,2h-4.7l-3.7,5.3l1.8,2.7l4.2-6l4.9,7.2l-4.9,7.2l-4.1-6l-1.9,2.7l3.7,5.3h4.7
	l4.5-6.5l1.8-2.7L105.7,8.4z"/>
<path id="Tracé_830" class="st0" d="M117.4,2.5c0-0.5-0.4-0.6-0.9-0.6h-0.6v2h0.5V3.2h0.1l0.4,0.7h0.5l-0.5-0.8
	C117.2,3.1,117.4,2.8,117.4,2.5z M116.6,2.8h-0.2V2.4h0.2c0.1,0,0.3,0,0.3,0.2S116.7,2.8,116.6,2.8L116.6,2.8z"/>
<path id="Tracé_831" class="st0" d="M106.5,15.8l3.7,5.3h3.7l-5.5-8L106.5,15.8z"/>
<path id="Tracé_832" class="st0" d="M116.6,1.1c-1,0-1.9,0.8-1.9,1.9c0,1,0.8,1.9,1.9,1.9c1,0,1.9-0.8,1.9-1.9l0,0
	C118.4,2,117.6,1.1,116.6,1.1L116.6,1.1z M116.5,4.4c-0.8,0-1.4-0.6-1.4-1.4l0,0c0-0.8,0.6-1.4,1.4-1.4s1.4,0.6,1.4,1.4l0,0
	C117.9,3.7,117.3,4.4,116.5,4.4L116.5,4.4z"/>
<path id="Tracé_833" class="st0" d="M90.8,8.5L86.3,2h-3.7l6.3,9.1l-6.3,9.1h3.7l4.5-6.5l1.8-2.7L90.8,8.5z"/>
<path id="Tracé_834" class="st0" d="M67.6,4.4V1.6c-4.8-0.6-8.8,2.2-8.7,7.7v10.8h3V9.3C61.8,5.8,64,4.1,67.6,4.4z"/>
<path id="Tracé_835" class="st0" d="M80.9,14.6c-0.9,2.1-3.1,3.5-5.4,3.4c-3.4,0-6.1-2.7-6.3-6h15.4c0-6.5-4.5-10.4-9.2-10.4
	c-5.3,0.2-9.4,4.7-9.1,10c0.2,5,4.3,9,9.3,9.1c3.9,0.2,7.5-2.3,8.6-6.1H80.9z M75.3,4.3c2.9,0.1,5.3,2.2,5.9,5H69.3
	C69.9,6.4,72.4,4.4,75.3,4.3L75.3,4.3z"/>
</svg>
