<?xml version="1.0" encoding="utf-8"?>
<!-- Generator: Adobe Illustrator 25.4.6, SVG Export Plug-In . SVG Version: 6.00 Build 0)  -->
<svg version="1.1" id="Groupe_306" xmlns="http://www.w3.org/2000/svg" xmlns:xlink="http://www.w3.org/1999/xlink" x="0px" y="0px"
	 viewBox="0 0 118.9 39.1" style="enable-background:new 0 0 118.9 39.1;" xml:space="preserve">
<style type="text/css">
	.st0{fill:#FFFFFF;}
</style>
<path id="Tracé_843" class="st0" d="M42.9,15.1h5v14.2h3.9V15.1h5v-3.3H42.9V15.1z"/>
<path id="Tracé_844" class="st0" d="M72.7,21l-0.1,1l-0.2-1l-3.2-9.2h-1.3L64.7,21l-0.2,1l-0.1-1L62,11.8h-3.8l5,17.5h1.6l3.7-9.8
	l0.1-0.8l0.1,0.8l3.7,9.8H74l5-17.5h-3.8L72.7,21z"/>
<path id="Tracé_845" class="st0" d="M18.2,14.1c-1.1,0-2,0.9-2,2c0,0.4,0.1,0.7,0.3,1c0.7,1.1,1.8,2.7,1.8,2.7s1.1-1.6,1.8-2.7
	c0.5-1,0.2-2.2-0.8-2.7C18.9,14.2,18.5,14.1,18.2,14.1z"/>
<path id="Tracé_846" class="st0" d="M34.4,9.5L18.9,0.8c-0.5-0.2-1.1-0.2-1.6,0L1.8,9.5C1.3,9.8,1,10.3,1,10.8v17.4
	c0,0.5,0.3,1,0.8,1.3l15.5,8.7c0.5,0.2,1.1,0.2,1.6,0l15.5-8.7c0.5-0.3,0.8-0.8,0.8-1.3V10.8C35.1,10.3,34.8,9.8,34.4,9.5z
	 M15.5,28.8c-0.3,0.4-0.7,0.7-1.2,0.7s-1-0.3-1.2-0.7l-7-10.1c-0.9-1.4-1-3.1-0.3-4.6c0.8-1.7,2.6-2.8,4.5-2.8c0.7,0,1.3,0.1,2,0.4
	l-1.4,2.5c-0.2,0-0.4-0.1-0.6-0.1c-1.1,0-2,0.8-2,1.9c0,0.4,0.1,0.7,0.3,1c0.7,1.1,1.8,2.7,1.8,2.7l4,5.4l1.5-2.1l1.8,2.6L15.5,28.8
	z M23.3,28.8c-0.3,0.4-0.7,0.6-1.2,0.7c-0.5,0-0.9-0.3-1.2-0.7l-2.7-4l-1.8-2.5c-1.1-1.6-2.4-3.5-2.4-3.5c-0.9-1.4-1-3.1-0.3-4.6
	c1.2-2.5,4.2-3.5,6.7-2.3c1,0.5,1.8,1.3,2.3,2.3c0.8,1.5,0.7,3.3-0.3,4.6l-2.3,3.5l2.1,3.1l4-5.8l0,0h3.5L23.3,28.8z"/>
<rect id="Rectangle_234" x="81.3" y="11.8" class="st0" width="3.9" height="17.5"/>
<path id="Tracé_847" class="st0" d="M104,11.8v3.3h5v14.2h3.9V15.1h5v-3.3H104z"/>
<path id="Tracé_848" class="st0" d="M95,11.3c-4.4,0-6.8,2.8-6.8,6.8v11.2h3.9V18c-0.2-1.6,1-3,2.6-3.1c0.1,0,0.3,0,0.4,0
	c1.6,0,2.9,1.3,2.9,3V18v11.3h3.9V18.1C101.9,14.1,99.4,11.3,95,11.3z"/>
</svg>
