<?xml version="1.0" encoding="utf-8"?>
<!-- Generator: Adobe Illustrator 25.4.6, SVG Export Plug-In . SVG Version: 6.00 Build 0)  -->
<svg version="1.1" id="Calque_1" xmlns="http://www.w3.org/2000/svg" xmlns:xlink="http://www.w3.org/1999/xlink" x="0px" y="0px"
	 viewBox="0 0 30.8 25" style="enable-background:new 0 0 30.8 25;" xml:space="preserve">
<style type="text/css">
	.st0{fill:#FFFFFF;}
</style>
<path id="Icon_awesome-twitter" class="st0" d="M26.8,6.7c0,0.3,0,0.5,0,0.8c0,7.8-5.9,16.7-16.7,16.7c-3.2,0-6.3-0.9-9-2.6
	c0.5,0.1,0.9,0.1,1.4,0.1c2.6,0,5.2-0.9,7.3-2.5C7.3,19,5,17.4,4.3,15C4.6,15,5,15.1,5.4,15.1c0.5,0,1-0.1,1.5-0.2
	c-2.7-0.6-4.7-3-4.7-5.8V9C3,9.5,3.9,9.8,4.9,9.8C2.3,8.1,1.5,4.6,3.1,1.9c3,3.7,7.4,5.9,12.1,6.1C15.1,7.6,15,7.2,15,6.7
	c0-3.2,2.6-5.9,5.9-5.9c1.6,0,3.2,0.7,4.3,1.9c1.3-0.3,2.6-0.7,3.7-1.4c-0.4,1.4-1.4,2.5-2.6,3.2c1.2-0.1,2.3-0.4,3.4-0.9
	C28.9,4.8,27.9,5.8,26.8,6.7L26.8,6.7z"/>
</svg>
