<?xml version="1.0" encoding="utf-8"?>
<!-- Generator: Adobe Illustrator 25.4.6, SVG Export Plug-In . SVG Version: 6.00 Build 0)  -->
<svg version="1.1" id="Calque_1" xmlns="http://www.w3.org/2000/svg" xmlns:xlink="http://www.w3.org/1999/xlink" x="0px" y="0px"
	 viewBox="0 0 53 63.1" style="enable-background:new 0 0 53 63.1;" xml:space="preserve">
<style type="text/css">
	.st0{fill:#FFFFFF;}
</style>
<path id="Icon_awesome-ups" class="st0" d="M14.3,38c-0.7,0.5-4.5,1.8-4.5-2.6V21H5.3v14.1c0,10.3,11,7,13.5,5.4V21h-4.5V38z
	 M0.7,6.6V37c0,14.3,10.3,18.6,25.8,25.4C42,55.6,52.4,51.3,52.4,37V6.6C36.3-1.9,13.6-0.3,0.7,6.6z M50,37
	c0,11.9-7.3,15.6-23.5,22.8C10.3,52.6,3,48.9,3,37V19.6C17.1,6.7,34.9,5.8,50,7.2L50,37z M21.1,22.2v29.3h4.5V42
	c3.4,1,9.9-0.4,9.9-10.8C35.5,17.8,24.4,20.1,21.1,22.2z M25.6,38.3V24.5c1.2-0.6,5.3-1.7,5.3,6.8C30.9,40.7,25.9,38.4,25.6,38.3
	L25.6,38.3z M36.5,26.4c0,6.5,7.1,5.8,7.2,9.7c0.1,3.2-4.2,3.2-7,0.7V41c5,3,11.3,1.1,11.5-4.6c0.2-7.1-7.5-6.4-7.4-10.1
	c0.1-2.8,4.2-2.8,6.7-0.3V22C43.6,19,36.5,20.8,36.5,26.4L36.5,26.4z"/>
</svg>
