<?xml version="1.0" encoding="utf-8"?>
<!-- Generator: Adobe Illustrator 25.4.6, SVG Export Plug-In . SVG Version: 6.00 Build 0)  -->
<svg version="1.1" id="Calque_1" xmlns="http://www.w3.org/2000/svg" xmlns:xlink="http://www.w3.org/1999/xlink" x="0px" y="0px"
	 viewBox="0 0 86.1 28.4" style="enable-background:new 0 0 86.1 28.4;" xml:space="preserve">
<style type="text/css">
	.st0{fill-rule:evenodd;clip-rule:evenodd;fill:#FFFFFF;}
</style>
<path id="Tracé_849" class="st0" d="M44.4,9.3c0,3.8,3.4,5.9,6,7.2c2.7,1.3,3.6,2.1,3.6,3.3c0,1.8-2.1,2.6-4.1,2.6
	c-2.4,0.1-4.9-0.5-7-1.7l-1.2,5.8c2.4,0.9,5,1.4,7.6,1.4c7.2,0,11.9-3.6,11.9-9.1c0-7-9.7-7.4-9.6-10.5c0-0.9,0.9-2,2.9-2.2
	c2.3-0.2,4.7,0.2,6.8,1.2l1.2-5.6c-2.1-0.8-4.2-1.2-6.4-1.2C49.2,0.5,44.5,4.1,44.4,9.3 M74,1c-1.3,0-2.4,0.8-2.9,1.9L60.8,27.5H68
	l1.4-3.9h8.8l0.8,3.9h6.4L79.9,1H74z M75,8.2l2.1,10h-5.7L75,8.2z M35.7,1L30,27.5h6.9L42.6,1H35.7z M25.6,1l-7.1,18L15.6,3.7
	C15.3,2.2,14,1,12.4,1H0.7L0.6,1.8C2.9,2.2,5.2,3,7.3,4C8.2,4.5,8.9,5.3,9,6.4l5.5,21.1h7.2L32.8,1H25.6z"/>
</svg>
